<svg width="70" height="70" viewBox="0 0 70 70" fill="none" xmlns="http://www.w3.org/2000/svg">
<g filter="url(#filter0_b_325_23040)">
<rect x="69.4215" y="70" width="69.4215" height="69.4216" rx="17.3554" transform="rotate(-180 69.4215 70)" fill="url(#paint0_linear_325_23040)"/>
<line x1="9.99988" y1="28.8268" x2="59.5918" y2="28.8268" stroke="black" stroke-width="1.65307"/>
<line x1="23.4694" y1="26.7751" x2="46.1225" y2="26.7751" stroke="black" stroke-width="1.46939"/>
<line x1="26.5306" y1="25.031" x2="43.0613" y2="25.031" stroke="black" stroke-width="1.28572"/>
<line x1="33.2426" y1="45.1654" x2="35.0793" y2="33.5327" stroke="black" stroke-width="1.28572"/>
<line x1="33.8776" y1="44.6534" x2="38.1633" y2="44.6534" stroke="black" stroke-width="1.22449"/>
<line x1="28.9796" y1="23.6222" x2="40.6123" y2="23.6222" stroke="black" stroke-width="1.04082"/>
<line x1="30.8163" y1="22.521" x2="38.7755" y2="22.521" stroke="black" stroke-width="0.79592"/>
<line x1="33.8776" y1="21.3265" x2="36.3265" y2="21.3265" stroke="black" stroke-width="1.34694"/>
<line x1="36.6327" y1="37.3066" x2="36.6327" y2="35.4699" stroke="black" stroke-width="1.83674"/>
<line x1="36.7635" y1="36.5536" x2="34.9268" y2="33.4923" stroke="black" stroke-width="1.83674"/>
<line x1="50.1021" y1="37.3066" x2="50.1021" y2="35.4699" stroke="black" stroke-width="1.83674"/>
<mask id="path-13-inside-1_325_23040" fill="white">
<path d="M51.0205 37.3058C51.0205 38.3612 50.2142 39.3735 48.779 40.1198C47.3437 40.8661 45.3972 41.2854 43.3674 41.2854C41.3377 41.2854 39.3911 40.8661 37.9559 40.1198C36.5207 39.3735 35.7144 38.3612 35.7144 37.3058L37.5361 37.3058C37.5361 38.11 38.1504 38.8813 39.244 39.4499C40.3376 40.0186 41.8209 40.3381 43.3674 40.3381C44.914 40.3381 46.3972 40.0186 47.4908 39.4499C48.5844 38.8813 49.1988 38.11 49.1988 37.3058H51.0205Z"/>
</mask>
<path d="M51.0205 37.3058C51.0205 38.3612 50.2142 39.3735 48.779 40.1198C47.3437 40.8661 45.3972 41.2854 43.3674 41.2854C41.3377 41.2854 39.3911 40.8661 37.9559 40.1198C36.5207 39.3735 35.7144 38.3612 35.7144 37.3058L37.5361 37.3058C37.5361 38.11 38.1504 38.8813 39.244 39.4499C40.3376 40.0186 41.8209 40.3381 43.3674 40.3381C44.914 40.3381 46.3972 40.0186 47.4908 39.4499C48.5844 38.8813 49.1988 38.11 49.1988 37.3058H51.0205Z" fill="black" stroke="black" stroke-width="3.67348" mask="url(#path-13-inside-1_325_23040)"/>
<line x1="19.4898" y1="37.3066" x2="19.4898" y2="35.4699" stroke="black" stroke-width="1.83674"/>
<line x1="32.9592" y1="37.3066" x2="32.9592" y2="35.4699" stroke="black" stroke-width="1.83674"/>
<mask id="path-16-inside-2_325_23040" fill="white">
<path d="M33.8776 37.3058C33.8776 38.3612 33.0713 39.3735 31.636 40.1198C30.2008 40.8661 28.2542 41.2854 26.2245 41.2854C24.1948 41.2854 22.2482 40.8661 20.8129 40.1198C19.3777 39.3735 18.5714 38.3612 18.5714 37.3058L20.3931 37.3058C20.3931 38.11 21.0075 38.8813 22.1011 39.4499C23.1947 40.0186 24.6779 40.3381 26.2245 40.3381C27.7711 40.3381 29.2543 40.0186 30.3479 39.4499C31.4415 38.8813 32.0559 38.11 32.0559 37.3058H33.8776Z"/>
</mask>
<path d="M33.8776 37.3058C33.8776 38.3612 33.0713 39.3735 31.636 40.1198C30.2008 40.8661 28.2542 41.2854 26.2245 41.2854C24.1948 41.2854 22.2482 40.8661 20.8129 40.1198C19.3777 39.3735 18.5714 38.3612 18.5714 37.3058L20.3931 37.3058C20.3931 38.11 21.0075 38.8813 22.1011 39.4499C23.1947 40.0186 24.6779 40.3381 26.2245 40.3381C27.7711 40.3381 29.2543 40.0186 30.3479 39.4499C31.4415 38.8813 32.0559 38.11 32.0559 37.3058H33.8776Z" fill="black" stroke="black" stroke-width="3.67348" mask="url(#path-16-inside-2_325_23040)"/>
<line y1="-0.918369" x2="3.56998" y2="-0.918369" transform="matrix(0.514496 -0.857493 -0.857493 -0.514496 32.0408 36.0811)" stroke="black" stroke-width="1.83674"/>
<ellipse cx="26.2244" cy="36.6942" rx="2.14286" ry="1.83674" fill="black"/>
<ellipse cx="43.3675" cy="36.6942" rx="2.14286" ry="1.83674" fill="black"/>
<mask id="path-20-inside-3_325_23040" fill="white">
<path d="M39.5615 50.3126C38.3203 51.4095 36.7183 52.0104 35.0619 52.0005C33.4054 51.9907 31.8107 51.3707 30.5826 50.2591L31.3303 49.433C32.3553 50.3607 33.6861 50.8781 35.0685 50.8864C36.4509 50.8946 37.7878 50.3931 38.8237 49.4777L39.5615 50.3126Z"/>
</mask>
<path d="M39.5615 50.3126C38.3203 51.4095 36.7183 52.0104 35.0619 52.0005C33.4054 51.9907 31.8107 51.3707 30.5826 50.2591L31.3303 49.433C32.3553 50.3607 33.6861 50.8781 35.0685 50.8864C36.4509 50.8946 37.7878 50.3931 38.8237 49.4777L39.5615 50.3126Z" fill="black" stroke="black" stroke-width="1.22449" mask="url(#path-20-inside-3_325_23040)"/>
</g>
<defs>
<filter id="filter0_b_325_23040" x="-173.554" y="-172.976" width="416.529" height="416.53" filterUnits="userSpaceOnUse" color-interpolation-filters="sRGB">
<feFlood flood-opacity="0" result="BackgroundImageFix"/>
<feGaussianBlur in="BackgroundImageFix" stdDeviation="86.7769"/>
<feComposite in2="SourceAlpha" operator="in" result="effect1_backgroundBlur_325_23040"/>
<feBlend mode="normal" in="SourceGraphic" in2="effect1_backgroundBlur_325_23040" result="shape"/>
</filter>
<linearGradient id="paint0_linear_325_23040" x1="104.132" y1="47.438" x2="104.132" y2="172.397" gradientUnits="userSpaceOnUse">
<stop stop-color="#A9A9A3"/>
<stop offset="1" stop-color="white"/>
</linearGradient>
</defs>
</svg>
