<svg width="53" height="53" viewBox="0 0 53 53" fill="none" xmlns="http://www.w3.org/2000/svg">
<circle cx="2.5" cy="20.5" r="2.5" fill="#999999"/>
<circle cx="2.5" cy="14.5" r="2.5" fill="#999999"/>
<circle cx="2.5" cy="8.5" r="2.5" fill="#999999"/>
<circle cx="2.5" cy="2.5" r="2.5" fill="#999999"/>
<circle cx="14.5" cy="20.5" r="2.5" fill="#D6D6D6"/>
<circle cx="14.5" cy="14.5" r="2.5" fill="#D6D6D6"/>
<circle cx="14.5" cy="8.5" r="2.5" fill="#D6D6D6"/>
<circle cx="14.5" cy="2.5" r="2.5" fill="#999999"/>
<circle cx="8.5" cy="2.5" r="2.5" fill="#999999"/>
<circle cx="20.5" cy="20.5" r="2.5" fill="#999999"/>
<circle cx="20.5" cy="14.5" r="2.5" fill="#999999"/>
<circle cx="20.5" cy="2.5" r="2.5" fill="#999999"/>
<circle cx="26.5" cy="20.5" r="2.5" fill="#999999"/>
<circle cx="26.5" cy="14.5" r="2.5" fill="#999999"/>
<circle cx="26.5" cy="2.5" r="2.5" fill="#999999"/>
<circle cx="32.5" cy="20.5" r="2.5" fill="#999999"/>
<circle cx="20.5" cy="26.5" r="2.5" fill="#999999"/>
<circle cx="26.5" cy="26.5" r="2.5" fill="#999999"/>
<circle cx="32.5" cy="26.5" r="2.5" fill="#999999"/>
<circle cx="32.5" cy="14.5" r="2.5" fill="#999999"/>
<circle cx="32.5" cy="2.5" r="2.5" fill="#999999"/>
<circle cx="44.5" cy="2.5" r="2.5" fill="#999999"/>
<circle cx="38.5" cy="2.5" r="2.5" fill="#999999"/>
<circle cx="50.5" cy="20.5" r="2.5" fill="#999999"/>
<circle cx="50.5" cy="14.5" r="2.5" fill="#999999"/>
<circle cx="50.5" cy="8.5" r="2.5" fill="#999999"/>
<circle cx="50.5" cy="2.5" r="2.5" fill="#999999"/>
<circle cx="2.5" cy="32.5" r="2.5" fill="#999999"/>
<circle cx="2.5" cy="26.5" r="2.5" fill="#999999"/>
<circle cx="2.5" cy="50.5" r="2.5" fill="#999999"/>
<circle cx="2.5" cy="44.5" r="2.5" fill="#999999"/>
<circle cx="2.5" cy="38.5" r="2.5" fill="#999999"/>
<circle cx="8.5" cy="20.5" r="2.5" fill="#999999"/>
<circle cx="8.5" cy="14.5" r="2.5" fill="#999999"/>
<circle cx="8.5" cy="8.5" r="2.5" fill="#999999"/>
<circle cx="8.5" cy="32.5" r="2.5" fill="#999999"/>
<circle cx="8.5" cy="26.5" r="2.5" fill="#999999"/>
<circle cx="8.5" cy="44.5" r="2.5" fill="#999999"/>
<circle cx="8.5" cy="38.5" r="2.5" fill="#999999"/>
<circle cx="14.5" cy="32.5" r="2.5" fill="#D6D6D6"/>
<circle cx="14.5" cy="26.5" r="2.5" fill="#D6D6D6"/>
<circle cx="14.5" cy="50.5" r="2.5" fill="#999999"/>
<circle cx="14.5" cy="44.5" r="2.5" fill="#D6D6D6"/>
<circle cx="14.5" cy="38.5" r="2.5" fill="#D6D6D6"/>
<circle cx="8.5" cy="50.5" r="2.5" fill="#999999"/>
<circle cx="20.5" cy="50.5" r="2.5" fill="#999999"/>
<circle cx="20.5" cy="44.5" r="2.5" fill="#999999"/>
<circle cx="20.5" cy="38.5" r="2.5" fill="#999999"/>
<circle cx="26.5" cy="50.5" r="2.5" fill="#999999"/>
<circle cx="26.5" cy="44.5" r="2.5" fill="#999999"/>
<circle cx="26.5" cy="38.5" r="2.5" fill="#999999"/>
<circle cx="32.5" cy="50.5" r="2.5" fill="#999999"/>
<circle cx="32.5" cy="44.5" r="2.5" fill="#999999"/>
<circle cx="32.5" cy="38.5" r="2.5" fill="#999999"/>
<circle cx="44.5" cy="50.5" r="2.5" fill="#999999"/>
<circle cx="38.5" cy="50.5" r="2.5" fill="#999999"/>
<circle cx="50.5" cy="32.5" r="2.5" fill="#999999"/>
<circle cx="50.5" cy="26.5" r="2.5" fill="#999999"/>
<circle cx="50.5" cy="50.5" r="2.5" fill="#999999"/>
<circle cx="50.5" cy="44.5" r="2.5" fill="#999999"/>
<circle cx="50.5" cy="38.5" r="2.5" fill="#999999"/>
<circle cx="44.5" cy="20.5" r="2.5" fill="#999999"/>
<circle cx="44.5" cy="14.5" r="2.5" fill="#999999"/>
<circle cx="44.5" cy="8.5" r="2.5" fill="#999999"/>
<circle cx="38.5" cy="8.5" r="2.5" fill="#999999"/>
<circle cx="44.5" cy="32.5" r="2.5" fill="#999999"/>
<circle cx="44.5" cy="26.5" r="2.5" fill="#999999"/>
<circle cx="44.5" cy="44.5" r="2.5" fill="#999999"/>
<circle cx="44.5" cy="38.5" r="2.5" fill="#999999"/>
<circle cx="38.5" cy="32.5" r="2.5" fill="#999999"/>
<circle cx="38.5" cy="44.5" r="2.5" fill="#999999"/>
<circle cx="38.5" cy="38.5" r="2.5" fill="#999999"/>
<circle cx="20.5" cy="8.5" r="2.5" fill="#D6D6D6"/>
<circle cx="26.5" cy="8.5" r="2.5" fill="#D6D6D6"/>
<circle cx="32.5" cy="8.5" r="2.5" fill="#D6D6D6"/>
<circle cx="38.5" cy="20.5" r="2.5" fill="#D6D6D6"/>
<circle cx="38.5" cy="14.5" r="2.5" fill="#D6D6D6"/>
<circle cx="20.5" cy="32.5" r="2.5" fill="#D6D6D6"/>
<circle cx="26.5" cy="32.5" r="2.5" fill="#D6D6D6"/>
<circle cx="32.5" cy="32.5" r="2.5" fill="#D6D6D6"/>
<circle cx="38.5" cy="26.5" r="2.5" fill="#D6D6D6"/>
<rect width="53" height="53" rx="2.5" fill="#151515" fill-opacity="0.5"/>
<circle cx="14.5" cy="20.5" r="2.5" fill="url(#paint0_radial_851_7270)"/>
<circle cx="14.5" cy="14.5" r="2.5" fill="url(#paint1_radial_851_7270)"/>
<circle cx="14.5" cy="8.5" r="2.5" fill="url(#paint2_radial_851_7270)"/>
<circle cx="20.5" cy="8.5" r="2.5" fill="url(#paint3_radial_851_7270)"/>
<circle cx="26.5" cy="8.5" r="2.5" fill="url(#paint4_radial_851_7270)"/>
<circle cx="20.5" cy="32.5" r="2.5" fill="url(#paint5_radial_851_7270)"/>
<circle cx="26.5" cy="32.5" r="2.5" fill="url(#paint6_radial_851_7270)"/>
<circle cx="14.5" cy="32.5" r="2.5" fill="url(#paint7_radial_851_7270)"/>
<circle cx="14.5" cy="26.5" r="2.5" fill="url(#paint8_radial_851_7270)"/>
<circle cx="32.5" cy="8.5" r="2.5" fill="url(#paint9_radial_851_7270)"/>
<circle cx="32.5" cy="32.5" r="2.5" fill="url(#paint10_radial_851_7270)"/>
<circle cx="38.5" cy="20.5" r="2.5" fill="url(#paint11_radial_851_7270)"/>
<circle cx="38.5" cy="14.5" r="2.5" fill="url(#paint12_radial_851_7270)"/>
<circle cx="38.5" cy="26.5" r="2.5" fill="url(#paint13_radial_851_7270)"/>
<circle cx="14.5" cy="44.5" r="2.5" fill="url(#paint14_radial_851_7270)"/>
<circle cx="14.5" cy="38.5" r="2.5" fill="url(#paint15_radial_851_7270)"/>
<defs>
<radialGradient id="paint0_radial_851_7270" cx="0" cy="0" r="1" gradientUnits="userSpaceOnUse" gradientTransform="translate(14.5 20.5) rotate(90) scale(2.5)">
<stop stop-color="white"/>
<stop offset="1" stop-color="white" stop-opacity="0.7"/>
</radialGradient>
<radialGradient id="paint1_radial_851_7270" cx="0" cy="0" r="1" gradientUnits="userSpaceOnUse" gradientTransform="translate(14.5 14.5) rotate(90) scale(2.5)">
<stop stop-color="white"/>
<stop offset="1" stop-color="white" stop-opacity="0.7"/>
</radialGradient>
<radialGradient id="paint2_radial_851_7270" cx="0" cy="0" r="1" gradientUnits="userSpaceOnUse" gradientTransform="translate(14.5 8.5) rotate(90) scale(2.5)">
<stop stop-color="white"/>
<stop offset="1" stop-color="white" stop-opacity="0.7"/>
</radialGradient>
<radialGradient id="paint3_radial_851_7270" cx="0" cy="0" r="1" gradientUnits="userSpaceOnUse" gradientTransform="translate(20.5 8.5) rotate(90) scale(2.5)">
<stop stop-color="white"/>
<stop offset="1" stop-color="white" stop-opacity="0.7"/>
</radialGradient>
<radialGradient id="paint4_radial_851_7270" cx="0" cy="0" r="1" gradientUnits="userSpaceOnUse" gradientTransform="translate(26.5 8.5) rotate(90) scale(2.5)">
<stop stop-color="white"/>
<stop offset="1" stop-color="white" stop-opacity="0.7"/>
</radialGradient>
<radialGradient id="paint5_radial_851_7270" cx="0" cy="0" r="1" gradientUnits="userSpaceOnUse" gradientTransform="translate(20.5 32.5) rotate(90) scale(2.5)">
<stop stop-color="white"/>
<stop offset="1" stop-color="white" stop-opacity="0.7"/>
</radialGradient>
<radialGradient id="paint6_radial_851_7270" cx="0" cy="0" r="1" gradientUnits="userSpaceOnUse" gradientTransform="translate(26.5 32.5) rotate(90) scale(2.5)">
<stop stop-color="white"/>
<stop offset="1" stop-color="white" stop-opacity="0.7"/>
</radialGradient>
<radialGradient id="paint7_radial_851_7270" cx="0" cy="0" r="1" gradientUnits="userSpaceOnUse" gradientTransform="translate(14.5 32.5) rotate(90) scale(2.5)">
<stop stop-color="white"/>
<stop offset="1" stop-color="white" stop-opacity="0.7"/>
</radialGradient>
<radialGradient id="paint8_radial_851_7270" cx="0" cy="0" r="1" gradientUnits="userSpaceOnUse" gradientTransform="translate(14.5 26.5) rotate(90) scale(2.5)">
<stop stop-color="white"/>
<stop offset="1" stop-color="white" stop-opacity="0.7"/>
</radialGradient>
<radialGradient id="paint9_radial_851_7270" cx="0" cy="0" r="1" gradientUnits="userSpaceOnUse" gradientTransform="translate(32.5 8.5) rotate(90) scale(2.5)">
<stop stop-color="white"/>
<stop offset="1" stop-color="white" stop-opacity="0.7"/>
</radialGradient>
<radialGradient id="paint10_radial_851_7270" cx="0" cy="0" r="1" gradientUnits="userSpaceOnUse" gradientTransform="translate(32.5 32.5) rotate(90) scale(2.5)">
<stop stop-color="white"/>
<stop offset="1" stop-color="white" stop-opacity="0.7"/>
</radialGradient>
<radialGradient id="paint11_radial_851_7270" cx="0" cy="0" r="1" gradientUnits="userSpaceOnUse" gradientTransform="translate(38.5 20.5) rotate(90) scale(2.5)">
<stop stop-color="white"/>
<stop offset="1" stop-color="white" stop-opacity="0.7"/>
</radialGradient>
<radialGradient id="paint12_radial_851_7270" cx="0" cy="0" r="1" gradientUnits="userSpaceOnUse" gradientTransform="translate(38.5 14.5) rotate(90) scale(2.5)">
<stop stop-color="white"/>
<stop offset="1" stop-color="white" stop-opacity="0.7"/>
</radialGradient>
<radialGradient id="paint13_radial_851_7270" cx="0" cy="0" r="1" gradientUnits="userSpaceOnUse" gradientTransform="translate(38.5 26.5) rotate(90) scale(2.5)">
<stop stop-color="white"/>
<stop offset="1" stop-color="white" stop-opacity="0.7"/>
</radialGradient>
<radialGradient id="paint14_radial_851_7270" cx="0" cy="0" r="1" gradientUnits="userSpaceOnUse" gradientTransform="translate(14.5 44.5) rotate(90) scale(2.5)">
<stop stop-color="white"/>
<stop offset="1" stop-color="white" stop-opacity="0.7"/>
</radialGradient>
<radialGradient id="paint15_radial_851_7270" cx="0" cy="0" r="1" gradientUnits="userSpaceOnUse" gradientTransform="translate(14.5 38.5) rotate(90) scale(2.5)">
<stop stop-color="white"/>
<stop offset="1" stop-color="white" stop-opacity="0.7"/>
</radialGradient>
</defs>
</svg>
