<svg width="53" height="53" viewBox="0 0 53 53" fill="none" xmlns="http://www.w3.org/2000/svg">
<circle cx="2.5" cy="20.5" r="2.5" fill="#999999"/>
<circle cx="2.5" cy="14.5" r="2.5" fill="#999999"/>
<circle cx="2.5" cy="8.5" r="2.5" fill="#999999"/>
<circle cx="2.5" cy="2.5" r="2.5" fill="#999999"/>
<circle cx="14.5" cy="8.5" r="2.5" fill="#D6D6D6"/>
<circle cx="14.5" cy="2.5" r="2.5" fill="#999999"/>
<circle cx="8.5" cy="20.5" r="2.5" fill="#999999"/>
<circle cx="8.5" cy="14.5" r="2.5" fill="#999999"/>
<circle cx="8.5" cy="8.5" r="2.5" fill="#999999"/>
<circle cx="8.5" cy="2.5" r="2.5" fill="#999999"/>
<circle cx="20.5" cy="20.5" r="2.5" fill="#999999"/>
<circle cx="20.5" cy="14.5" r="2.5" fill="#999999"/>
<circle cx="20.5" cy="8.5" r="2.5" fill="#D6D6D6"/>
<circle cx="20.5" cy="2.5" r="2.5" fill="#999999"/>
<circle cx="26.5" cy="20.5" r="2.5" fill="#999999"/>
<circle cx="26.5" cy="14.5" r="2.5" fill="#999999"/>
<circle cx="26.5" cy="8.5" r="2.5" fill="#D6D6D6"/>
<circle cx="26.5" cy="2.5" r="2.5" fill="#999999"/>
<circle cx="32.5" cy="14.5" r="2.5" fill="#999999"/>
<circle cx="32.5" cy="8.5" r="2.5" fill="#D6D6D6"/>
<circle cx="32.5" cy="2.5" r="2.5" fill="#999999"/>
<circle cx="44.5" cy="20.5" r="2.5" fill="#999999"/>
<circle cx="44.5" cy="14.5" r="2.5" fill="#999999"/>
<circle cx="44.5" cy="8.5" r="2.5" fill="#999999"/>
<circle cx="44.5" cy="2.5" r="2.5" fill="#999999"/>
<circle cx="38.5" cy="14.5" r="2.5" fill="#D6D6D6"/>
<circle cx="32.5" cy="20.5" r="2.5" fill="#D6D6D6"/>
<circle cx="26.5" cy="26.5" r="2.5" fill="#D6D6D6"/>
<circle cx="20.5" cy="32.5" r="2.5" fill="#D6D6D6"/>
<circle cx="38.5" cy="8.5" r="2.5" fill="#D6D6D6"/>
<circle cx="38.5" cy="2.5" r="2.5" fill="#999999"/>
<circle cx="50.5" cy="20.5" r="2.5" fill="#999999"/>
<circle cx="50.5" cy="14.5" r="2.5" fill="#999999"/>
<circle cx="50.5" cy="8.5" r="2.5" fill="#999999"/>
<circle cx="50.5" cy="2.5" r="2.5" fill="#999999"/>
<circle cx="2.5" cy="32.5" r="2.5" fill="#999999"/>
<circle cx="2.5" cy="26.5" r="2.5" fill="#999999"/>
<circle cx="2.5" cy="50.5" r="2.5" fill="#999999"/>
<circle cx="2.5" cy="44.5" r="2.5" fill="#999999"/>
<circle cx="2.5" cy="38.5" r="2.5" fill="#999999"/>
<circle cx="14.5" cy="50.5" r="2.5" fill="#999999"/>
<circle cx="14.5" cy="44.5" r="2.5" fill="#D6D6D6"/>
<circle cx="14.5" cy="38.5" r="2.5" fill="#D6D6D6"/>
<circle cx="8.5" cy="32.5" r="2.5" fill="#999999"/>
<circle cx="8.5" cy="26.5" r="2.5" fill="#999999"/>
<circle cx="8.5" cy="50.5" r="2.5" fill="#999999"/>
<circle cx="8.5" cy="44.5" r="2.5" fill="#999999"/>
<circle cx="8.5" cy="38.5" r="2.5" fill="#999999"/>
<circle cx="20.5" cy="26.5" r="2.5" fill="#999999"/>
<circle cx="14.5" cy="20.5" r="2.5" fill="#999999"/>
<circle cx="14.5" cy="14.5" r="2.5" fill="#999999"/>
<circle cx="14.5" cy="32.5" r="2.5" fill="#999999"/>
<circle cx="14.5" cy="26.5" r="2.5" fill="#999999"/>
<circle cx="20.5" cy="50.5" r="2.5" fill="#999999"/>
<circle cx="20.5" cy="44.5" r="2.5" fill="#D6D6D6"/>
<circle cx="20.5" cy="38.5" r="2.5" fill="#999999"/>
<circle cx="26.5" cy="32.5" r="2.5" fill="#999999"/>
<circle cx="26.5" cy="50.5" r="2.5" fill="#999999"/>
<circle cx="26.5" cy="44.5" r="2.5" fill="#D6D6D6"/>
<circle cx="26.5" cy="38.5" r="2.5" fill="#999999"/>
<circle cx="32.5" cy="32.5" r="2.5" fill="#999999"/>
<circle cx="32.5" cy="26.5" r="2.5" fill="#999999"/>
<circle cx="32.5" cy="50.5" r="2.5" fill="#999999"/>
<circle cx="32.5" cy="44.5" r="2.5" fill="#D6D6D6"/>
<circle cx="32.5" cy="38.5" r="2.5" fill="#999999"/>
<circle cx="44.5" cy="32.5" r="2.5" fill="#999999"/>
<circle cx="44.5" cy="26.5" r="2.5" fill="#999999"/>
<circle cx="38.5" cy="20.5" r="2.5" fill="#999999"/>
<circle cx="38.5" cy="32.5" r="2.5" fill="#999999"/>
<circle cx="38.5" cy="26.5" r="2.5" fill="#999999"/>
<circle cx="44.5" cy="50.5" r="2.5" fill="#999999"/>
<circle cx="44.5" cy="44.5" r="2.5" fill="#999999"/>
<circle cx="44.5" cy="38.5" r="2.5" fill="#999999"/>
<circle cx="38.5" cy="38.5" r="2.5" fill="#999999"/>
<circle cx="38.5" cy="50.5" r="2.5" fill="#999999"/>
<circle cx="38.5" cy="44.5" r="2.5" fill="#D6D6D6"/>
<circle cx="50.5" cy="32.5" r="2.5" fill="#999999"/>
<circle cx="50.5" cy="26.5" r="2.5" fill="#999999"/>
<circle cx="50.5" cy="50.5" r="2.5" fill="#999999"/>
<circle cx="50.5" cy="44.5" r="2.5" fill="#999999"/>
<circle cx="50.5" cy="38.5" r="2.5" fill="#999999"/>
<rect width="53" height="53" rx="2.5" fill="#151515" fill-opacity="0.5"/>
</svg>
