<svg width="345" height="86" viewBox="0 0 345 86" fill="none" xmlns="http://www.w3.org/2000/svg">
<ellipse cx="14.8733" cy="42.8733" rx="14.8733" ry="14.8733" fill="white"/>
<line x1="36.9578" y1="35.2109" x2="36.9578" y2="50.535" stroke="white" stroke-width="9.91556"/>
<path d="M68.8398 69.9141C73.3633 69.9141 77.3008 69.1289 80.6523 67.5586C84.0039 65.9883 86.6055 63.7852 88.457 60.9492C90.3086 58.0898 91.2344 54.75 91.2344 50.9297V18.2695H76.3281V49.4531C76.3281 51.2344 76.0469 52.7461 75.4844 53.9883C74.9219 55.207 74.0781 56.1445 72.9531 56.8008C71.8516 57.4336 70.4922 57.75 68.875 57.75C67.2578 57.75 65.8984 57.4336 64.7969 56.8008C63.6953 56.1445 62.8516 55.207 62.2656 53.9883C61.7031 52.7461 61.4219 51.2344 61.4219 49.4531V18.2695H46.5156V50.9297C46.5156 54.7734 47.4414 58.125 49.293 60.9844C51.168 63.8203 53.7812 66.0234 57.1328 67.5938C60.4844 69.1406 64.3867 69.9141 68.8398 69.9141ZM94.6656 69H109.572V52.3359H113.791C113.908 52.3359 114.025 52.3359 114.142 52.3359C114.259 52.3359 114.365 52.3359 114.459 52.3359L122.474 69H139.138L129.505 50.1211C131.966 48.9258 133.935 47.0156 135.412 44.3906C136.912 41.7656 137.662 38.8711 137.662 35.707V35.6367C137.662 31.8867 136.888 28.7227 135.341 26.1445C133.795 23.5664 131.521 21.6094 128.521 20.2734C125.545 18.9375 121.877 18.2695 117.517 18.2695H94.6656V69ZM109.572 41.8242V29.2734H115.795C117.763 29.2734 119.369 29.8594 120.611 31.0312C121.853 32.1797 122.474 33.6797 122.474 35.5312V35.6016C122.474 37.4531 121.865 38.9531 120.646 40.1016C119.427 41.25 117.81 41.8242 115.795 41.8242H109.572ZM137.683 69H153.363L163.452 30.3633H168.304V18.2695H154.241L137.683 69ZM148.089 58.9102H179.097L176.003 48.3984H151.183L148.089 58.9102ZM173.823 69H189.503L172.945 18.2695H163.734V30.3633L173.823 69ZM195.22 69H210.126V30.082H223.485V18.2695H181.86V30.082H195.22V69ZM224.983 69H239.889V18.2695H224.983V69ZM267.613 69.9141C272.887 69.9141 277.434 68.8477 281.254 66.7148C285.074 64.582 288.016 61.5586 290.078 57.6445C292.164 53.707 293.207 49.043 293.207 43.6523V43.582C293.207 38.1914 292.164 33.5391 290.078 29.625C288.016 25.7109 285.062 22.6875 281.219 20.5547C277.398 18.4219 272.863 17.3555 267.613 17.3555C262.41 17.3555 257.898 18.4219 254.078 20.5547C250.258 22.6641 247.305 25.6875 245.219 29.625C243.133 33.5391 242.09 38.1914 242.09 43.582V43.6523C242.09 49.043 243.121 53.707 245.184 57.6445C247.27 61.582 250.223 64.6172 254.043 66.75C257.863 68.8594 262.387 69.9141 267.613 69.9141ZM267.613 57.75C265.527 57.75 263.711 57.1875 262.164 56.0625C260.617 54.9141 259.41 53.2852 258.543 51.1758C257.699 49.0664 257.277 46.5586 257.277 43.6523V43.582C257.277 40.6523 257.699 38.1445 258.543 36.0586C259.41 33.9492 260.617 32.332 262.164 31.207C263.734 30.082 265.551 29.5195 267.613 29.5195C269.723 29.5195 271.551 30.0937 273.098 31.2422C274.668 32.3672 275.875 33.9844 276.719 36.0938C277.586 38.1797 278.02 40.6758 278.02 43.582V43.6523C278.02 46.5352 277.598 49.0312 276.754 51.1406C275.91 53.25 274.715 54.8789 273.168 56.0273C271.621 57.1758 269.77 57.75 267.613 57.75ZM295.408 69H310.314V42.6328H316.396L306.658 36.9375L328.63 69H340.9V18.2695H325.994V44.2148H319.912L329.685 49.9102L307.818 18.2695H295.408V69Z" fill="white"/>
</svg>
