<svg width="293" height="86" viewBox="0 0 293 86" fill="none" xmlns="http://www.w3.org/2000/svg">
<path d="M52.5156 69H67.4219V52.3359H71.6406C71.7578 52.3359 71.875 52.3359 71.9922 52.3359C72.1094 52.3359 72.2148 52.3359 72.3086 52.3359L80.3242 69H96.9883L87.3555 50.1211C89.8164 48.9258 91.7852 47.0156 93.2617 44.3906C94.7617 41.7656 95.5117 38.8711 95.5117 35.707V35.6367C95.5117 31.8867 94.7383 28.7227 93.1914 26.1445C91.6445 23.5664 89.3711 21.6094 86.3711 20.2734C83.3945 18.9375 79.7266 18.2695 75.3672 18.2695H52.5156V69ZM67.4219 41.8242V29.2734H73.6445C75.6133 29.2734 77.2188 29.8594 78.4609 31.0312C79.7031 32.1797 80.3242 33.6797 80.3242 35.5312V35.6016C80.3242 37.4531 79.7148 38.9531 78.4961 40.1016C77.2773 41.25 75.6602 41.8242 73.6445 41.8242H67.4219ZM97.9938 69H133.783V57.1875H112.9V49.1367H132.482V38.168H112.9V30.082H133.783V18.2695H97.9938V69ZM134.683 69H150.363L160.452 30.3633H165.304V18.2695H151.241L134.683 69ZM145.089 58.9102H176.097L173.003 48.3984H148.183L145.089 58.9102ZM170.823 69H186.503L169.945 18.2695H160.734V30.3633L170.823 69ZM187.473 69H200.481V39.6094H207.407L193.028 19.6758L212.048 69H220.028L239.048 19.6758L224.669 39.6094H231.595V69H244.602V18.2695H227.376L216.161 48.4688H215.915L204.7 18.2695H187.473V69ZM268.53 69.9141C273.194 69.9141 277.178 69.2227 280.483 67.8398C283.788 66.4336 286.307 64.4531 288.041 61.8984C289.799 59.3203 290.678 56.2852 290.678 52.793V52.7578C290.678 50.0156 290.092 47.6836 288.92 45.7617C287.772 43.8164 286.014 42.2227 283.647 40.9805C281.28 39.7383 278.28 38.7891 274.647 38.1328L269.549 37.2188C267.018 36.75 265.178 36.2109 264.03 35.6016C262.881 34.9688 262.307 34.0781 262.307 32.9297V32.8945C262.307 32.1211 262.541 31.4297 263.01 30.8203C263.479 30.1875 264.17 29.6953 265.084 29.3438C266.022 28.9687 267.17 28.7812 268.53 28.7812C269.889 28.7812 271.096 28.9687 272.151 29.3438C273.229 29.7188 274.084 30.2461 274.717 30.9258C275.373 31.582 275.748 32.3789 275.842 33.3164L275.877 33.668H289.588L289.553 32.8945C289.413 29.7305 288.522 26.9883 286.881 24.668C285.241 22.3242 282.873 20.5195 279.78 19.2539C276.686 17.9883 272.877 17.3555 268.354 17.3555C264.346 17.3555 260.772 18.0352 257.631 19.3945C254.491 20.7539 252.018 22.6758 250.213 25.1602C248.432 27.6445 247.541 30.5859 247.541 33.9844V34.0195C247.541 37.957 248.877 41.1797 251.549 43.6875C254.245 46.1953 258.112 47.8945 263.151 48.7852L268.248 49.6992C271.061 50.2148 273.041 50.7773 274.19 51.3867C275.338 51.9961 275.913 52.8984 275.913 54.0938V54.1289C275.913 54.9727 275.62 55.7227 275.034 56.3789C274.448 57.0352 273.616 57.5508 272.538 57.9258C271.483 58.3008 270.205 58.4883 268.705 58.4883C267.299 58.4883 266.01 58.3008 264.838 57.9258C263.666 57.5273 262.694 56.9883 261.92 56.3086C261.147 55.6289 260.655 54.832 260.444 53.918L260.373 53.6016H246.663L246.698 54.2695C246.885 57.5977 247.87 60.4336 249.651 62.7773C251.455 65.0977 253.952 66.8672 257.139 68.0859C260.35 69.3047 264.147 69.9141 268.53 69.9141Z" fill="white"/>
<ellipse cx="26.6338" cy="43.6099" rx="25.3662" ry="25.3662" fill="white"/>
<line x1="12.6831" y1="18.2437" x2="12.6831" y2="68.9761" stroke="white" stroke-width="25.3662"/>
</svg>
