<svg width="279" height="86" viewBox="0 0 279 86" fill="none" xmlns="http://www.w3.org/2000/svg">
<path d="M33.5156 69H48.4219V52.3359H52.6406C52.7578 52.3359 52.875 52.3359 52.9922 52.3359C53.1094 52.3359 53.2148 52.3359 53.3086 52.3359L61.3242 69H77.9883L68.3555 50.1211C70.8164 48.9258 72.7852 47.0156 74.2617 44.3906C75.7617 41.7656 76.5117 38.8711 76.5117 35.707V35.6367C76.5117 31.8867 75.7383 28.7227 74.1914 26.1445C72.6445 23.5664 70.3711 21.6094 67.3711 20.2734C64.3945 18.9375 60.7266 18.2695 56.3672 18.2695H33.5156V69ZM48.4219 41.8242V29.2734H54.6445C56.6133 29.2734 58.2188 29.8594 59.4609 31.0312C60.7031 32.1797 61.3242 33.6797 61.3242 35.5312V35.6016C61.3242 37.4531 60.7148 38.9531 59.4961 40.1016C58.2773 41.25 56.6602 41.8242 54.6445 41.8242H48.4219ZM78.9938 69H93.9V18.2695H78.9938V69ZM97.3312 69H133.12V57.1875H112.237V49.1367H131.82V38.168H112.237V30.082H133.12V18.2695H97.3312V69ZM136.481 69H151.387V42.6328H157.47L147.731 36.9375L169.704 69H181.973V18.2695H167.067V44.2148H160.985L170.759 49.9102L148.891 18.2695H136.481V69ZM185.405 69H207.096C212.229 69 216.612 67.9922 220.245 65.9766C223.901 63.9375 226.69 60.9961 228.612 57.1523C230.557 53.3086 231.53 48.6797 231.53 43.2656V43.1953C231.53 37.7812 230.557 33.2227 228.612 29.5195C226.69 25.8164 223.901 23.0156 220.245 21.1172C216.612 19.2188 212.229 18.2695 207.096 18.2695H185.405V69ZM200.311 57.1523V30.1172H204.987C207.354 30.1172 209.381 30.6211 211.069 31.6289C212.78 32.6133 214.08 34.0781 214.971 36.0234C215.885 37.9688 216.342 40.3594 216.342 43.1953V43.2656C216.342 46.3828 215.909 48.9727 215.041 51.0352C214.198 53.0742 212.932 54.6094 211.245 55.6406C209.557 56.6484 207.471 57.1523 204.987 57.1523H200.311ZM254.227 69.9141C258.891 69.9141 262.875 69.2227 266.18 67.8398C269.484 66.4336 272.004 64.4531 273.738 61.8984C275.496 59.3203 276.375 56.2852 276.375 52.793V52.7578C276.375 50.0156 275.789 47.6836 274.617 45.7617C273.469 43.8164 271.711 42.2227 269.344 40.9805C266.977 39.7383 263.977 38.7891 260.344 38.1328L255.246 37.2188C252.715 36.75 250.875 36.2109 249.727 35.6016C248.578 34.9688 248.004 34.0781 248.004 32.9297V32.8945C248.004 32.1211 248.238 31.4297 248.707 30.8203C249.176 30.1875 249.867 29.6953 250.781 29.3438C251.719 28.9687 252.867 28.7812 254.227 28.7812C255.586 28.7812 256.793 28.9687 257.848 29.3438C258.926 29.7188 259.781 30.2461 260.414 30.9258C261.07 31.582 261.445 32.3789 261.539 33.3164L261.574 33.668H275.285L275.25 32.8945C275.109 29.7305 274.219 26.9883 272.578 24.668C270.938 22.3242 268.57 20.5195 265.477 19.2539C262.383 17.9883 258.574 17.3555 254.051 17.3555C250.043 17.3555 246.469 18.0352 243.328 19.3945C240.188 20.7539 237.715 22.6758 235.91 25.1602C234.129 27.6445 233.238 30.5859 233.238 33.9844V34.0195C233.238 37.957 234.574 41.1797 237.246 43.6875C239.941 46.1953 243.809 47.8945 248.848 48.7852L253.945 49.6992C256.758 50.2148 258.738 50.7773 259.887 51.3867C261.035 51.9961 261.609 52.8984 261.609 54.0938V54.1289C261.609 54.9727 261.316 55.7227 260.73 56.3789C260.145 57.0352 259.312 57.5508 258.234 57.9258C257.18 58.3008 255.902 58.4883 254.402 58.4883C252.996 58.4883 251.707 58.3008 250.535 57.9258C249.363 57.5273 248.391 56.9883 247.617 56.3086C246.844 55.6289 246.352 54.832 246.141 53.918L246.07 53.6016H232.359L232.395 54.2695C232.582 57.5977 233.566 60.4336 235.348 62.7773C237.152 65.0977 239.648 66.8672 242.836 68.0859C246.047 69.3047 249.844 69.9141 254.227 69.9141Z" fill="white"/>
<line y1="24.2853" x2="30.1322" y2="24.2853" stroke="white" stroke-width="11.4294"/>
<rect y="41.4297" width="23.898" height="28.0541" fill="white"/>
</svg>
