<svg width="182" height="86" viewBox="0 0 182 86" fill="none" xmlns="http://www.w3.org/2000/svg">
<path d="M53.8086 69.9141C59.082 69.9141 63.6289 68.8477 67.4492 66.7148C71.2695 64.582 74.2109 61.5586 76.2734 57.6445C78.3594 53.707 79.4023 49.043 79.4023 43.6523V43.582C79.4023 38.1914 78.3594 33.5391 76.2734 29.625C74.2109 25.7109 71.2578 22.6875 67.4141 20.5547C63.5938 18.4219 59.0586 17.3555 53.8086 17.3555C48.6055 17.3555 44.0938 18.4219 40.2734 20.5547C36.4531 22.6641 33.5 25.6875 31.4141 29.625C29.3281 33.5391 28.2852 38.1914 28.2852 43.582V43.6523C28.2852 49.043 29.3164 53.707 31.3789 57.6445C33.4648 61.582 36.418 64.6172 40.2383 66.75C44.0586 68.8594 48.582 69.9141 53.8086 69.9141ZM53.8086 57.75C51.7227 57.75 49.9062 57.1875 48.3594 56.0625C46.8125 54.9141 45.6055 53.2852 44.7383 51.1758C43.8945 49.0664 43.4727 46.5586 43.4727 43.6523V43.582C43.4727 40.6523 43.8945 38.1445 44.7383 36.0586C45.6055 33.9492 46.8125 32.332 48.3594 31.207C49.9297 30.082 51.7461 29.5195 53.8086 29.5195C55.918 29.5195 57.7461 30.0937 59.293 31.2422C60.8633 32.3672 62.0703 33.9844 62.9141 36.0938C63.7812 38.1797 64.2148 40.6758 64.2148 43.582V43.6523C64.2148 46.5352 63.793 49.0312 62.9492 51.1406C62.1055 53.25 60.9102 54.8789 59.3633 56.0273C57.8164 57.1758 55.9648 57.75 53.8086 57.75ZM81.6031 69H94.6109V39.6094H101.537L87.1578 19.6758L106.177 69H114.158L133.177 19.6758L118.798 39.6094H125.724V69H138.732V18.2695H121.505L110.291 48.4688H110.045L98.8297 18.2695H81.6031V69ZM142.198 69H177.988V57.1875H157.105V49.1367H176.687V38.168H157.105V30.082H177.988V18.2695H142.198V69Z" fill="white"/>
<rect y="18.3003" width="23.4" height="16.575" fill="white"/>
<rect y="46.5752" width="23.4" height="22.4249" fill="white"/>
</svg>
