<svg width="270" height="86" viewBox="0 0 270 86" fill="none" xmlns="http://www.w3.org/2000/svg">
<path d="M32.832 69H47.7383V49.3828H65.5977V69H80.5039V18.2695H65.5977V37.5703H47.7383V18.2695H32.832V69ZM108.228 69.9141C113.502 69.9141 118.048 68.8477 121.869 66.7148C125.689 64.582 128.63 61.5586 130.693 57.6445C132.779 53.707 133.822 49.043 133.822 43.6523V43.582C133.822 38.1914 132.779 33.5391 130.693 29.625C128.63 25.7109 125.677 22.6875 121.834 20.5547C118.013 18.4219 113.478 17.3555 108.228 17.3555C103.025 17.3555 98.5133 18.4219 94.693 20.5547C90.8727 22.6641 87.9195 25.6875 85.8336 29.625C83.7477 33.5391 82.7047 38.1914 82.7047 43.582V43.6523C82.7047 49.043 83.7359 53.707 85.7984 57.6445C87.8844 61.582 90.8375 64.6172 94.6578 66.75C98.4781 68.8594 103.002 69.9141 108.228 69.9141ZM108.228 57.75C106.142 57.75 104.326 57.1875 102.779 56.0625C101.232 54.9141 100.025 53.2852 99.1578 51.1758C98.3141 49.0664 97.8922 46.5586 97.8922 43.6523V43.582C97.8922 40.6523 98.3141 38.1445 99.1578 36.0586C100.025 33.9492 101.232 32.332 102.779 31.207C104.349 30.082 106.166 29.5195 108.228 29.5195C110.338 29.5195 112.166 30.0937 113.713 31.2422C115.283 32.3672 116.49 33.9844 117.334 36.0938C118.201 38.1797 118.634 40.6758 118.634 43.582V43.6523C118.634 46.5352 118.213 49.0312 117.369 51.1406C116.525 53.25 115.33 54.8789 113.783 56.0273C112.236 57.1758 110.384 57.75 108.228 57.75ZM144.988 69H159.894V30.082H173.253V18.2695H131.628V30.082H144.988V69ZM196.583 69.9141C201.856 69.9141 206.403 68.8477 210.223 66.7148C214.044 64.582 216.985 61.5586 219.048 57.6445C221.134 53.707 222.177 49.043 222.177 43.6523V43.582C222.177 38.1914 221.134 33.5391 219.048 29.625C216.985 25.7109 214.032 22.6875 210.188 20.5547C206.368 18.4219 201.833 17.3555 196.583 17.3555C191.38 17.3555 186.868 18.4219 183.048 20.5547C179.227 22.6641 176.274 25.6875 174.188 29.625C172.102 33.5391 171.059 38.1914 171.059 43.582V43.6523C171.059 49.043 172.091 53.707 174.153 57.6445C176.239 61.582 179.192 64.6172 183.012 66.75C186.833 68.8594 191.356 69.9141 196.583 69.9141ZM196.583 57.75C194.497 57.75 192.68 57.1875 191.134 56.0625C189.587 54.9141 188.38 53.2852 187.512 51.1758C186.669 49.0664 186.247 46.5586 186.247 43.6523V43.582C186.247 40.6523 186.669 38.1445 187.512 36.0586C188.38 33.9492 189.587 32.332 191.134 31.207C192.704 30.082 194.52 29.5195 196.583 29.5195C198.692 29.5195 200.52 30.0937 202.067 31.2422C203.637 32.3672 204.845 33.9844 205.688 36.0938C206.555 38.1797 206.989 40.6758 206.989 43.582V43.6523C206.989 46.5352 206.567 49.0312 205.723 51.1406C204.88 53.25 203.684 54.8789 202.137 56.0273C200.591 57.1758 198.739 57.75 196.583 57.75ZM244.838 69.9141C249.502 69.9141 253.487 69.2227 256.791 67.8398C260.096 66.4336 262.616 64.4531 264.35 61.8984C266.108 59.3203 266.987 56.2852 266.987 52.793V52.7578C266.987 50.0156 266.401 47.6836 265.229 45.7617C264.08 43.8164 262.323 42.2227 259.955 40.9805C257.588 39.7383 254.588 38.7891 250.955 38.1328L245.858 37.2188C243.327 36.75 241.487 36.2109 240.338 35.6016C239.19 34.9688 238.616 34.0781 238.616 32.9297V32.8945C238.616 32.1211 238.85 31.4297 239.319 30.8203C239.788 30.1875 240.479 29.6953 241.393 29.3438C242.33 28.9687 243.479 28.7812 244.838 28.7812C246.198 28.7812 247.405 28.9687 248.459 29.3438C249.538 29.7188 250.393 30.2461 251.026 30.9258C251.682 31.582 252.057 32.3789 252.151 33.3164L252.186 33.668H265.897L265.862 32.8945C265.721 29.7305 264.83 26.9883 263.19 24.668C261.549 22.3242 259.182 20.5195 256.088 19.2539C252.995 17.9883 249.186 17.3555 244.663 17.3555C240.655 17.3555 237.08 18.0352 233.94 19.3945C230.799 20.7539 228.327 22.6758 226.522 25.1602C224.741 27.6445 223.85 30.5859 223.85 33.9844V34.0195C223.85 37.957 225.186 41.1797 227.858 43.6875C230.553 46.1953 234.42 47.8945 239.459 48.7852L244.557 49.6992C247.37 50.2148 249.35 50.7773 250.498 51.3867C251.647 51.9961 252.221 52.8984 252.221 54.0938V54.1289C252.221 54.9727 251.928 55.7227 251.342 56.3789C250.756 57.0352 249.924 57.5508 248.846 57.9258C247.791 58.3008 246.514 58.4883 245.014 58.4883C243.608 58.4883 242.319 58.3008 241.147 57.9258C239.975 57.5273 239.002 56.9883 238.229 56.3086C237.455 55.6289 236.963 54.832 236.752 53.918L236.682 53.6016H222.971L223.006 54.2695C223.194 57.5977 224.178 60.4336 225.959 62.7773C227.764 65.0977 230.26 66.8672 233.448 68.0859C236.659 69.3047 240.455 69.9141 244.838 69.9141Z" fill="white"/>
<ellipse cx="11.1626" cy="29.1627" rx="11.1626" ry="11.1627" fill="white"/>
<rect y="49.7051" width="28.8368" height="19.5347" fill="white"/>
</svg>
