<svg width="204" height="86" viewBox="0 0 204 86" fill="none" xmlns="http://www.w3.org/2000/svg">
<path d="M30.9634 39.8569L21.8563 68.9998H40.0706L30.9634 39.8569Z" fill="white"/>
<path d="M61.9271 18L61.9271 69H50.9985L61.9271 18Z" fill="white"/>
<path d="M-8.2016e-05 18L-8.2016e-05 69H10.9285L-8.2016e-05 18Z" fill="white"/>
<path d="M89.9619 69.8789C95.001 69.8789 99.3369 68.8125 102.97 66.6797C106.626 64.5469 109.45 61.5234 111.442 57.6094C113.435 53.6719 114.431 49.0195 114.431 43.6523V43.582C114.431 38.1914 113.435 33.5508 111.442 29.6602C109.45 25.7461 106.626 22.7227 102.97 20.5898C99.3135 18.457 94.9775 17.3906 89.9619 17.3906C84.9697 17.3906 80.6338 18.457 76.9541 20.5898C73.2979 22.6992 70.4736 25.7109 68.4814 29.625C66.4893 33.5391 65.4932 38.1914 65.4932 43.582V43.6523C65.4932 49.0195 66.4775 53.6719 68.4463 57.6094C70.4385 61.5234 73.2627 64.5469 76.9189 66.6797C80.5986 68.8125 84.9463 69.8789 89.9619 69.8789ZM89.9619 60.8789C87.1729 60.8789 84.7588 60.1758 82.7197 58.7695C80.6807 57.3633 79.0986 55.3711 77.9736 52.793C76.8721 50.2148 76.3213 47.168 76.3213 43.6523V43.582C76.3213 40.0195 76.8721 36.9609 77.9736 34.4062C79.0986 31.8281 80.6807 29.8477 82.7197 28.4648C84.7822 27.082 87.1963 26.3906 89.9619 26.3906C92.7275 26.3906 95.1299 27.0938 97.1689 28.5C99.2314 29.8828 100.813 31.8633 101.915 34.4414C103.04 36.9961 103.603 40.043 103.603 43.582V43.6523C103.603 47.1445 103.052 50.1797 101.95 52.7578C100.849 55.3359 99.2783 57.3398 97.2393 58.7695C95.2002 60.1758 92.7744 60.8789 89.9619 60.8789ZM117.686 69H128.303V50.6133H136.284C136.378 50.6133 136.471 50.6133 136.565 50.6133C136.659 50.6133 136.741 50.6133 136.811 50.6133L146.268 69H158.292L147.604 49.0312C150.417 47.9297 152.643 46.0781 154.284 43.4766C155.948 40.875 156.78 37.9102 156.78 34.582V34.5117C156.78 31.1133 156.053 28.207 154.6 25.793C153.171 23.3555 151.096 21.4922 148.378 20.2031C145.682 18.9141 142.436 18.2695 138.639 18.2695H117.686V69ZM128.303 42.5625V26.5664H137.338C139.963 26.5664 142.049 27.2812 143.596 28.7109C145.143 30.1406 145.917 32.0742 145.917 34.5117V34.582C145.917 37.0664 145.167 39.0234 143.667 40.4531C142.19 41.8594 140.128 42.5625 137.479 42.5625H128.303ZM170.406 53.9883L180.778 41.1914H182.852L201.485 18.2695H189.672L171.074 41.4727H170.406V53.9883ZM160.211 69H170.828V18.2695H160.211V69ZM190.094 69H202.785L181.481 37.9922L173.817 44.9531L190.094 69Z" fill="white"/>
</svg>
